<svg width="72" height="72" viewBox="0 0 72 72" fill="none" xmlns="http://www.w3.org/2000/svg">
<rect width="72" height="72" rx="24" fill="url(#paint0_linear_5111_20)"/>
<path d="M43.4568 33.1783L35.8132 55.0746L35.7969 55.0942L35.7804 55.0743L28.1384 33.1783H43.4568ZM27.3307 30.8641L33.4442 23.9072H24.9026L27.3307 30.8641ZM42.406 31.4169L35.8049 23.9072H35.7889L29.1897 31.4169H42.406ZM46.6931 23.9072H38.1501L44.2648 30.8636L46.6931 23.9072ZM25.658 31.4169L23.3423 24.7819L17.6216 31.4169H25.658ZM45.3223 33.1783L39.0312 51.2001L54 33.1783H45.3223ZM45.9372 31.4169H53.9724L48.2534 24.7818L45.9372 31.4169ZM26.2728 33.1783H17.5938L32.5627 51.2004L26.2728 33.1783Z" fill="#535353"/>
<defs>
<linearGradient id="paint0_linear_5111_20" x1="36" y1="0" x2="36" y2="72" gradientUnits="userSpaceOnUse">
<stop stop-color="#303030"/>
<stop offset="1" stop-color="#222222" stop-opacity="0.72"/>
</linearGradient>
</defs>
</svg>
