<svg width="137" height="30" viewBox="0 0 137 30" fill="none" xmlns="http://www.w3.org/2000/svg">
<path d="M127.479 28.3006C122.135 28.3006 117.92 23.8597 117.92 18.3651C117.92 12.8705 122.135 8.42969 127.479 8.42969H127.517C132.861 8.42969 137.001 12.9082 137.001 18.3651C137.001 23.8221 132.861 28.3006 127.517 28.3006H127.479ZM127.479 23.8598H127.517C130.377 23.8598 132.522 21.3759 132.522 18.3651C132.522 15.392 130.377 12.8705 127.517 12.8705H127.479C124.581 12.8705 122.436 15.3544 122.436 18.3651C122.436 21.3759 124.581 23.8598 127.479 23.8598Z" fill="white"/>
<path d="M108.516 8.42969C112.844 8.42969 115.667 11.2146 115.667 16.5587V28.0748H111.188V16.935C111.188 14.5264 109.42 12.8705 107.162 12.8705C104.941 12.8705 103.135 14.6393 103.135 17.0479V28.0748H98.6562V8.65549H103.022V11.2899C104.151 9.52108 106.258 8.42969 108.516 8.42969Z" fill="white"/>
<path d="M93.9981 6.20966C92.3046 6.20966 90.9121 4.85482 90.9121 3.12365C90.9121 1.39247 92.3046 0 93.9981 0C95.8046 0 97.197 1.39247 97.197 3.12365C97.197 4.85482 95.7293 6.20966 93.9981 6.20966ZM96.2562 28.0752H91.7777V8.65589L96.2562 8.65589V28.0752Z" fill="white"/>
<path d="M89.5952 8.65625V12.6831L81.8426 21.0379C80.9393 22.0164 79.8856 23.1455 78.8695 24.0863V24.1239C80.149 24.0863 81.6168 24.0487 82.8211 24.0487L89.7834 24.0487V28.0755L73.5254 28.0755V24.0487L81.5039 15.4681C82.3694 14.5272 83.2727 13.624 84.2888 12.6455V12.6079C82.8587 12.6831 81.7673 12.6831 80.3372 12.6831H73.6759V8.65625L89.5952 8.65625Z" fill="white"/>
<path d="M69.8405 23.6342V29.9191L62.3889 22.3546V12.645H59.1523V8.65574H62.3889V3.16113L66.8674 3.16113V8.65574H71.7598V12.645H66.8674V20.6611L69.8405 23.6342Z" fill="white"/>
<path d="M54.836 6.20966C53.1425 6.20966 51.75 4.85482 51.75 3.12365C51.75 1.39247 53.1425 0 54.836 0C56.6425 0 58.0349 1.39247 58.0349 3.12365C58.0349 4.85482 56.5672 6.20966 54.836 6.20966ZM57.0941 28.0752H52.6156L52.6156 8.65589L57.0941 8.65589L57.0941 28.0752Z" fill="white"/>
<path d="M31.9844 0.978516L36.4629 0.978516V11.4785C37.7424 9.63441 39.8499 8.43011 42.3338 8.43011C46.8876 8.43011 50.8015 12.6075 50.8015 18.3656C50.8015 24.1236 46.8876 28.301 42.3338 28.301C39.8499 28.301 37.8177 27.3602 36.4629 25.2903V28.0752H31.9844L31.9844 0.978516ZM41.3177 23.8978C44.1779 23.8978 46.323 21.4139 46.323 18.3656C46.323 15.3172 44.1779 12.871 41.3177 12.871C38.4575 12.871 36.4629 15.3172 36.4629 18.3656C36.4629 21.4139 38.4575 23.8978 41.3177 23.8978Z" fill="white"/>
<path d="M24.3832 13.4035C22.3961 11.5897 19.4675 11.263 17.1281 12.5924L14.5377 14.0626L14.4391 13.9218L16.8208 12.1924C18.9799 10.6265 19.8819 7.84939 19.056 5.31454C18.233 2.7797 15.8709 1.06445 13.2017 1.06445C10.5324 1.06445 8.17043 2.7797 7.34739 5.31454C6.52435 7.84939 7.42631 10.6265 9.58257 12.1924L11.829 13.8232L11.7191 13.9781L9.27815 12.5924C6.93869 11.263 4.01013 11.5925 2.02299 13.4035C0.0358512 15.2173 -0.556062 18.1014 0.55448 20.5518C1.66502 22.9993 4.22998 24.4554 6.90205 24.1569C9.57411 23.8583 11.7529 21.8727 12.2941 19.2393L12.8099 16.7354L13.0918 16.8087L11.8318 28.1084L14.5687 28.1507L13.306 16.7664L13.585 16.6904L14.1093 19.2393C14.6505 21.8727 16.8293 23.8583 19.5013 24.1569C22.1734 24.4554 24.7384 23.0021 25.8489 20.5518C26.9594 18.1042 26.3675 15.2173 24.3804 13.4035H24.3832Z" fill="white"/>
</svg>
