<svg width="198" height="400" viewBox="0 0 198 400" fill="none" xmlns="http://www.w3.org/2000/svg">
<rect x="4.04102" y="3.15723" width="188.531" height="392.893" rx="30.2225" fill="black"/>
<path d="M5.40929 18.7863C3.58759 22.3616 2.68577 26.4737 2.23607 31.9778C1.78699 37.4743 1.78699 44.3905 1.78699 53.5817V53.5989L1.78699 77.0921H1.57339C1.05801 77.0921 0.640208 77.5099 0.640208 78.0253L0.640208 92.1689C0.640208 92.6842 1.05801 93.102 1.57339 93.102H1.78699L1.78699 105.762H1.57339C1.05801 105.762 0.640208 106.179 0.640208 106.695L0.640208 136.129C0.640208 136.644 1.05801 137.062 1.57339 137.062H1.78699L1.78699 143.987H1.57339C1.05801 143.987 0.640208 144.405 0.640208 144.921L0.640208 174.355C0.640208 174.87 1.05801 175.288 1.57339 175.288H1.78699L1.78699 346.333V346.35C1.78699 355.541 1.78699 362.458 2.23607 367.954C2.68577 373.458 3.58759 377.57 5.40929 381.146C8.59555 387.399 13.6797 392.483 19.9331 395.67C23.5084 397.491 27.6205 398.393 33.1246 398.843C38.6211 399.292 45.5375 399.292 54.7288 399.292H54.7457L142.589 399.292H142.606C151.797 399.292 158.713 399.292 164.21 398.843C169.714 398.393 173.826 397.491 177.401 395.67C183.655 392.483 188.739 387.399 191.925 381.146C193.747 377.57 194.649 373.458 195.098 367.954C195.548 362.458 195.548 355.542 195.548 346.351V346.333L195.548 174.906H195.57C196.191 174.906 196.694 174.402 196.694 173.781V127.91C196.694 127.289 196.191 126.786 195.57 126.786H195.548V53.5989V53.5811C195.548 44.3902 195.548 37.4742 195.098 31.9778C194.649 26.4737 193.747 22.3616 191.925 18.7863C188.739 12.5329 183.655 7.44877 177.401 4.26251C173.826 2.44081 169.714 1.53899 164.21 1.08929C158.713 0.640208 151.797 0.640208 142.606 0.640208H142.589L54.7457 0.640208H54.7285C45.5373 0.640208 38.6211 0.640208 33.1246 1.08929C27.6205 1.53899 23.5084 2.44081 19.9331 4.26251C13.6797 7.44877 8.59555 12.5329 5.40929 18.7863ZM117.717 5.34644L117.402 5.17337L117.717 5.3464C117.746 5.2944 117.776 5.23641 117.806 5.17866C117.911 4.97768 118.022 4.76796 118.145 4.60723C118.283 4.42696 118.354 4.41787 118.354 4.41787L144.424 4.41787C152.779 4.41787 159.024 4.41815 163.978 4.82289C168.927 5.2273 172.557 6.03369 175.686 7.62843C181.229 10.4525 185.735 14.9588 188.559 20.5014C190.154 23.6312 190.96 27.2604 191.365 32.2101C191.77 37.164 191.77 43.4088 191.77 51.764L191.77 348.168C191.77 356.523 191.77 362.768 191.365 367.722C190.96 372.672 190.154 376.301 188.559 379.431C185.735 384.973 181.229 389.479 175.686 392.304C172.557 393.898 168.927 394.705 163.978 395.109C159.024 395.514 152.779 395.514 144.424 395.514L52.9108 395.514C44.5556 395.514 38.3107 395.514 33.3569 395.109C28.4072 394.705 24.778 393.898 21.6481 392.304C16.1056 389.479 11.5993 384.973 8.77521 379.431C7.18047 376.301 6.37408 372.672 5.96967 367.722C5.56493 362.768 5.56465 356.523 5.56465 348.168L5.56465 51.764C5.56465 43.4088 5.56493 37.164 5.96967 32.2101C6.37408 27.2604 7.18047 23.6312 8.77521 20.5014C11.5993 14.9588 16.1056 10.4525 21.6481 7.62843C24.778 6.03369 28.4072 5.2273 33.3569 4.82289C38.3107 4.41815 44.5556 4.41787 52.9108 4.41787L78.5987 4.41787C78.5982 4.41787 78.6692 4.42696 78.8071 4.60723C78.93 4.76796 79.0408 4.97769 79.1459 5.17869L79.1472 5.18114C79.177 5.23803 79.2069 5.29515 79.235 5.34644C79.555 5.92958 80.1755 6.32619 80.8892 6.32619L116.063 6.32619C116.777 6.32619 117.397 5.92958 117.717 5.34644Z" fill="black" stroke="white" stroke-width="0.719584"/>
<mask id="mask0_5109_14" style="mask-type:alpha" maskUnits="userSpaceOnUse" x="10" y="9" width="177" height="381">
<path d="M10.9646 9.5632L186.039 9.5632L186.039 389.529L10.9646 389.529L10.9646 9.5632ZM78.8156 15.2971C74.4877 15.2971 70.9793 18.8055 70.9793 23.1334C70.9793 27.4613 74.4877 30.9697 78.8156 30.9697L118.188 30.9697C122.516 30.9697 126.025 27.4613 126.025 23.1334C126.025 18.8055 122.516 15.2971 118.188 15.2971L78.8156 15.2971ZM114.557 23.1334C114.557 21.1278 116.183 19.5019 118.188 19.5019C120.194 19.5019 121.82 21.1278 121.82 23.1334C121.82 25.139 120.194 26.7649 118.188 26.7649C116.183 26.7649 114.557 25.139 114.557 23.1334Z" fill="black" stroke="black" stroke-width="0.382259"/>
</mask>
<g mask="url(#mask0_5109_14)">
<rect x="10.8344" y="9.88909" width="174.737" height="379.629" rx="23.7225" fill="#010101"/>
<rect x="10.8344" y="9.88909" width="174.737" height="379.629" rx="23.7225" stroke="white" stroke-width="0.719584"/>
<path d="M122.131 196.892C117.896 193.027 111.654 192.33 106.668 195.164L101.147 198.297L100.937 197.997L106.013 194.311C110.615 190.974 112.537 185.055 110.777 179.652C109.023 174.25 103.988 170.594 98.2993 170.594C92.6103 170.594 87.576 174.25 85.8219 179.652C84.0677 185.055 85.9901 190.974 90.5858 194.311L95.3737 197.787L95.1394 198.117L89.937 195.164C84.9508 192.33 78.709 193.033 74.4738 196.892C70.2385 200.758 68.977 206.905 71.3439 212.128C73.7108 217.344 79.1776 220.448 84.8727 219.811C90.5677 219.175 95.2115 214.943 96.3649 209.33L97.4643 203.994L98.0651 204.15L95.3797 228.234L101.213 228.324L98.5216 204.06L99.1164 203.898L100.234 209.33C101.387 214.943 106.031 219.175 111.726 219.811C117.421 220.448 122.888 217.35 125.255 212.128C127.622 206.911 126.36 200.758 122.125 196.892H122.131Z" fill="#0A84FF"/>
</g>
<g filter="url(#filter0_f_5109_14)">
<path d="M119.969 204.299C115.734 200.433 109.492 199.736 104.506 202.57L98.9848 205.703L98.7745 205.403L103.851 201.717C108.453 198.38 110.375 192.461 108.615 187.058C106.861 181.656 101.826 178 96.1372 178C90.4482 178 85.4139 181.656 83.6597 187.058C81.9056 192.461 83.828 198.38 88.4237 201.717L93.2116 205.193L92.9773 205.523L87.7749 202.57C82.7887 199.736 76.5469 200.439 72.3117 204.299C68.0764 208.165 66.8148 214.312 69.1818 219.534C71.5487 224.751 77.0155 227.854 82.7106 227.218C88.4056 226.581 93.0494 222.349 94.2028 216.737L95.3022 211.4L95.9029 211.556L93.2176 235.64L99.0508 235.73L96.3595 211.466L96.9542 211.304L98.0716 216.737C99.2251 222.349 103.869 226.581 109.564 227.218C115.259 227.854 120.726 224.757 123.093 219.534C125.46 214.318 124.198 208.165 119.963 204.299H119.969Z" fill="#0A84FF"/>
</g>
<defs>
<filter id="filter0_f_5109_14" x="28" y="138" width="136.275" height="137.729" filterUnits="userSpaceOnUse" color-interpolation-filters="sRGB">
<feFlood flood-opacity="0" result="BackgroundImageFix"/>
<feBlend mode="normal" in="SourceGraphic" in2="BackgroundImageFix" result="shape"/>
<feGaussianBlur stdDeviation="20" result="effect1_foregroundBlur_5109_14"/>
</filter>
</defs>
</svg>
