<svg width="198" height="400" viewBox="0 0 198 400" fill="none" xmlns="http://www.w3.org/2000/svg">
<rect x="4.04297" y="3.16016" width="188.531" height="392.893" rx="30.2225" fill="black"/>
<path d="M5.40929 18.7873C3.58759 22.3626 2.68577 26.4747 2.23607 31.9788C1.78699 37.4753 1.78699 44.3915 1.78699 53.5827V53.5999V77.0931H1.57339C1.05801 77.0931 0.640208 77.5109 0.640208 78.0262V92.1698C0.640208 92.6852 1.05801 93.103 1.57339 93.103H1.78699V105.763H1.57339C1.05801 105.763 0.640208 106.18 0.640208 106.696V136.13C0.640208 136.645 1.05801 137.063 1.57339 137.063H1.78699V143.988H1.57339C1.05801 143.988 0.640208 144.406 0.640208 144.922V174.356C0.640208 174.871 1.05801 175.289 1.57339 175.289H1.78699V346.334V346.351C1.78699 355.542 1.78699 362.459 2.23607 367.955C2.68577 373.459 3.58759 377.571 5.40929 381.147C8.59555 387.4 13.6797 392.484 19.9331 395.671C23.5084 397.492 27.6205 398.394 33.1246 398.844C38.6211 399.293 45.5375 399.293 54.7288 399.293H54.7457H142.589H142.606C151.797 399.293 158.713 399.293 164.21 398.844C169.714 398.394 173.826 397.492 177.401 395.671C183.655 392.484 188.739 387.4 191.925 381.147C193.747 377.571 194.649 373.459 195.098 367.955C195.548 362.459 195.548 355.543 195.548 346.352V346.334V174.907H195.57C196.191 174.907 196.694 174.403 196.694 173.782V127.911C196.694 127.29 196.191 126.787 195.57 126.787H195.548V53.5999V53.5821C195.548 44.3912 195.548 37.4752 195.098 31.9788C194.649 26.4747 193.747 22.3626 191.925 18.7873C188.739 12.5339 183.655 7.44975 177.401 4.26348C173.826 2.44179 169.714 1.53997 164.21 1.09027C158.713 0.641184 151.797 0.641184 142.606 0.641185H142.589H54.7457H54.7285C45.5373 0.641184 38.6211 0.641184 33.1246 1.09027C27.6205 1.53997 23.5084 2.44179 19.9331 4.26348C13.6797 7.44975 8.59555 12.5339 5.40929 18.7873ZM117.717 5.34742L117.402 5.17434L117.717 5.34737C117.746 5.29537 117.776 5.23739 117.806 5.17964C117.911 4.97866 118.022 4.76893 118.145 4.60821C118.283 4.42793 118.354 4.41884 118.354 4.41884H144.424C152.779 4.41884 159.024 4.41912 163.978 4.82387C168.927 5.22827 172.557 6.03467 175.686 7.6294C181.229 10.4535 185.735 14.9598 188.559 20.5023C190.154 23.6322 190.96 27.2614 191.365 32.2111C191.77 37.1649 191.77 43.4098 191.77 51.765V348.169C191.77 356.524 191.77 362.769 191.365 367.723C190.96 372.673 190.154 376.302 188.559 379.432C185.735 384.974 181.229 389.48 175.686 392.305C172.557 393.899 168.927 394.706 163.978 395.11C159.024 395.515 152.779 395.515 144.424 395.515H52.9108C44.5556 395.515 38.3107 395.515 33.3569 395.11C28.4072 394.706 24.778 393.899 21.6481 392.305C16.1056 389.48 11.5993 384.974 8.77521 379.432C7.18047 376.302 6.37408 372.673 5.96967 367.723C5.56493 362.769 5.56465 356.524 5.56465 348.169V51.765C5.56465 43.4098 5.56493 37.1649 5.96967 32.2111C6.37408 27.2614 7.18047 23.6322 8.77521 20.5023C11.5993 14.9598 16.1056 10.4535 21.6481 7.6294C24.778 6.03467 28.4072 5.22827 33.3569 4.82387C38.3107 4.41912 44.5556 4.41884 52.9108 4.41884H78.5987C78.5982 4.41884 78.6692 4.42793 78.8071 4.60821C78.93 4.76894 79.0408 4.97867 79.1459 5.17967L79.1472 5.18211C79.177 5.239 79.2069 5.29613 79.235 5.34742C79.555 5.93055 80.1755 6.32716 80.8892 6.32716H116.063C116.777 6.32716 117.397 5.93055 117.717 5.34742Z" fill="black" stroke="white" stroke-width="0.719584"/>
<mask id="mask0_5109_15" style="mask-type:alpha" maskUnits="userSpaceOnUse" x="10" y="9" width="177" height="381">
<path d="M10.9646 9.56125L186.039 9.56125V389.527H10.9646V9.56125ZM78.8156 15.2951C74.4877 15.2951 70.9793 18.8036 70.9793 23.1315C70.9793 27.4593 74.4877 30.9678 78.8156 30.9678L118.188 30.9678C122.516 30.9678 126.025 27.4593 126.025 23.1315C126.025 18.8036 122.516 15.2951 118.188 15.2951L78.8156 15.2951ZM114.557 23.1315C114.557 21.1259 116.183 19.5 118.188 19.5C120.194 19.5 121.82 21.1259 121.82 23.1315C121.82 25.1371 120.194 26.7629 118.188 26.7629C116.183 26.7629 114.557 25.1371 114.557 23.1315Z" fill="black" stroke="black" stroke-width="0.382259"/>
</mask>
<g mask="url(#mask0_5109_15)">
<rect x="10.8344" y="9.88616" width="174.737" height="379.629" rx="23.7225" fill="#010101"/>
<rect x="10.8344" y="9.88616" width="174.737" height="379.629" rx="23.7225" stroke="white" stroke-width="0.719584"/>
</g>
<path d="M97.7865 173.436C97.7865 173.436 76 189.939 76 205.909C76 211.742 80.67 216.468 86.4352 216.468C91.4338 216.468 95.6059 212.911 96.6315 208.166C96.3228 219.823 93.6941 225.546 93.6941 225.546H101.889C101.889 225.546 99.2602 219.823 98.9515 208.166C99.9771 212.911 104.149 216.468 109.148 216.468C114.913 216.468 119.583 211.742 119.583 205.909C119.583 189.939 97.7965 173.436 97.7965 173.436H97.7865Z" fill="#F24E1E"/>
<g filter="url(#filter0_f_5109_15)">
<path d="M97.4526 184C97.4526 184 75.666 200.504 75.666 216.473C75.666 222.307 80.336 227.032 86.1013 227.032C91.0998 227.032 95.2719 223.476 96.2975 218.73C95.9888 230.387 93.3601 236.11 93.3601 236.11H101.555C101.555 236.11 98.9262 230.387 98.6176 218.73C99.6432 223.476 103.815 227.032 108.814 227.032C114.579 227.032 119.249 222.307 119.249 216.473C119.249 200.504 97.4625 184 97.4625 184H97.4526Z" fill="#F24E1E"/>
</g>
<defs>
<filter id="filter0_f_5109_15" x="35.666" y="144" width="123.584" height="132.11" filterUnits="userSpaceOnUse" color-interpolation-filters="sRGB">
<feFlood flood-opacity="0" result="BackgroundImageFix"/>
<feBlend mode="normal" in="SourceGraphic" in2="BackgroundImageFix" result="shape"/>
<feGaussianBlur stdDeviation="20" result="effect1_foregroundBlur_5109_15"/>
</filter>
</defs>
</svg>
