<svg width="198" height="400" viewBox="0 0 198 400" fill="none" xmlns="http://www.w3.org/2000/svg">
<rect x="4.03906" y="3.15723" width="188.531" height="392.893" rx="30.2225" fill="black"/>
<path d="M5.40733 18.7854C3.58564 22.3606 2.68382 26.4727 2.23411 31.9768C1.78503 37.4733 1.78503 44.3896 1.78503 53.5807V53.5979L1.78503 77.0911H1.57144C1.05606 77.0911 0.638255 77.5089 0.638255 78.0243L0.638255 92.1679C0.638255 92.6833 1.05606 93.1011 1.57144 93.1011H1.78503L1.78503 105.761H1.57144C1.05605 105.761 0.638255 106.178 0.638255 106.694L0.638255 136.128C0.638255 136.643 1.05606 137.061 1.57144 137.061H1.78503L1.78503 143.986H1.57144C1.05605 143.986 0.638255 144.404 0.638255 144.92L0.638255 174.354C0.638255 174.869 1.05606 175.287 1.57144 175.287H1.78503L1.78503 346.332V346.349C1.78503 355.54 1.78503 362.457 2.23411 367.953C2.68382 373.457 3.58564 377.569 5.40733 381.145C8.5936 387.398 13.6778 392.482 19.9312 395.669C23.5064 397.49 27.6185 398.392 33.1226 398.842C38.6192 399.291 45.5355 399.291 54.7269 399.291H54.7437H142.587H142.604C151.795 399.291 158.711 399.291 164.208 398.842C169.712 398.392 173.824 397.49 177.399 395.669C183.653 392.482 188.737 387.398 191.923 381.145C193.745 377.569 194.647 373.457 195.097 367.953C195.546 362.457 195.546 355.541 195.546 346.35V346.332L195.546 174.905H195.568C196.189 174.905 196.692 174.401 196.692 173.78V127.909C196.692 127.288 196.189 126.785 195.568 126.785H195.546V53.5979V53.5801C195.546 44.3893 195.546 37.4732 195.097 31.9768C194.647 26.4727 193.745 22.3606 191.923 18.7854C188.737 12.532 183.653 7.4478 177.399 4.26153C173.824 2.43984 169.712 1.53802 164.208 1.08831C158.712 0.639231 151.795 0.639231 142.604 0.639231H142.587L54.7437 0.639231H54.7266C45.5354 0.639231 38.6191 0.639231 33.1226 1.08831C27.6185 1.53802 23.5064 2.43984 19.9312 4.26153C13.6778 7.4478 8.5936 12.532 5.40733 18.7854ZM117.715 5.34546L117.4 5.17239L117.715 5.34542C117.744 5.29342 117.774 5.23543 117.804 5.17769C117.91 4.97671 118.02 4.76698 118.143 4.60625C118.281 4.42598 118.352 4.41689 118.352 4.41689L144.422 4.41689C152.777 4.41689 159.022 4.41717 163.976 4.82192C168.925 5.22632 172.555 6.03271 175.684 7.62745C181.227 10.4515 185.733 14.9578 188.557 20.5004C190.152 23.6302 190.959 27.2595 191.363 32.2091C191.768 37.163 191.768 43.4078 191.768 51.7631L191.768 348.167C191.768 356.522 191.768 362.767 191.363 367.721C190.959 372.671 190.152 376.3 188.557 379.43C185.733 384.972 181.227 389.479 175.684 392.303C172.555 393.897 168.925 394.704 163.976 395.108C159.022 395.513 152.777 395.513 144.422 395.513H52.9089C44.5536 395.513 38.3088 395.513 33.3549 395.108C28.4053 394.704 24.776 393.897 21.6462 392.303C16.1036 389.479 11.5973 384.972 8.77325 379.43C7.17852 376.3 6.37212 372.671 5.96772 367.721C5.56297 362.767 5.56269 356.522 5.56269 348.167L5.56269 51.7631C5.56269 43.4078 5.56297 37.163 5.96772 32.2091C6.37212 27.2595 7.17852 23.6302 8.77325 20.5004C11.5973 14.9578 16.1036 10.4515 21.6462 7.62745C24.776 6.03271 28.4053 5.22632 33.3549 4.82192C38.3088 4.41717 44.5536 4.41689 52.9089 4.41689L78.5967 4.41689C78.5963 4.41689 78.6672 4.42598 78.8051 4.60626C78.9281 4.76698 79.0389 4.97671 79.144 5.17772L79.1453 5.18016C79.175 5.23705 79.2049 5.29417 79.233 5.34546C79.553 5.9286 80.1736 6.32521 80.8873 6.32521L116.061 6.32521C116.775 6.32521 117.395 5.9286 117.715 5.34546Z" fill="black" stroke="white" stroke-width="0.719584"/>
<mask id="mask0_5109_16" style="mask-type:alpha" maskUnits="userSpaceOnUse" x="10" y="9" width="177" height="381">
<path d="M10.9626 9.56027L186.037 9.56027L186.037 389.526H10.9626L10.9626 9.56027ZM78.8137 15.2942C74.4858 15.2942 70.9773 18.8026 70.9773 23.1305C70.9773 27.4584 74.4858 30.9668 78.8137 30.9668L118.186 30.9668C122.514 30.9668 126.023 27.4584 126.023 23.1305C126.023 18.8026 122.514 15.2942 118.186 15.2942L78.8137 15.2942ZM114.555 23.1305C114.555 21.1249 116.181 19.499 118.186 19.499C120.192 19.499 121.818 21.1249 121.818 23.1305C121.818 25.1361 120.192 26.7619 118.186 26.7619C116.181 26.7619 114.555 25.1361 114.555 23.1305Z" fill="black" stroke="black" stroke-width="0.382259"/>
</mask>
<g mask="url(#mask0_5109_16)">
<rect x="10.8305" y="9.88421" width="174.737" height="379.629" rx="23.7225" fill="#010101"/>
<rect x="10.8305" y="9.88421" width="174.737" height="379.629" rx="23.7225" stroke="white" stroke-width="0.719584"/>
</g>
<path d="M71.1074 199.988C84.3356 204.077 94.6771 215.177 98.4944 229.385C102.301 215.177 112.643 204.077 125.881 199.988C112.653 195.9 102.312 184.799 98.4944 170.592C94.6877 184.799 84.3462 195.9 71.1074 199.988Z" fill="#17CF8D"/>
<g filter="url(#filter0_f_5109_16)">
<path d="M71.332 212.396C84.5603 216.485 94.9018 227.585 98.719 241.793C102.526 227.585 112.867 216.485 126.106 212.396C112.878 208.308 102.536 197.207 98.719 183C94.9123 197.207 84.5708 208.308 71.332 212.396Z" fill="#17CF8D"/>
</g>
<defs>
<filter id="filter0_f_5109_16" x="31.332" y="143" width="134.773" height="138.793" filterUnits="userSpaceOnUse" color-interpolation-filters="sRGB">
<feFlood flood-opacity="0" result="BackgroundImageFix"/>
<feBlend mode="normal" in="SourceGraphic" in2="BackgroundImageFix" result="shape"/>
<feGaussianBlur stdDeviation="20" result="effect1_foregroundBlur_5109_16"/>
</filter>
</defs>
</svg>
