<svg width="217" height="212" viewBox="0 0 217 212" fill="none" xmlns="http://www.w3.org/2000/svg">
<g clip-path="url(#clip0_3112_3768)">
<path d="M99.4768 138.858C107.394 134.043 115.22 128.165 122.512 121.547L128.38 128.014C109.216 145.364 88.5986 157.462 70.7401 163.005L76.3739 149.6C83.7101 147.326 91.5627 143.675 99.4769 138.864L99.4768 138.858Z" fill="black" stroke="#F24E1E" stroke-width="0.441059" stroke-miterlimit="10"/>
<path d="M103.016 142.757C110.933 137.943 118.759 132.064 126.051 125.447L131.919 131.913C112.755 149.263 92.1377 161.361 74.2792 166.905L79.9129 153.499C87.2492 151.226 95.1018 147.575 103.016 142.763L103.016 142.757Z" fill="black" stroke="#F24E1E" stroke-width="0.441059" stroke-miterlimit="10"/>
<path d="M70.7388 163.002L74.2773 166.901L79.9111 153.496L76.3725 149.597L70.7388 163.002Z" fill="black" stroke="#F24E1E" stroke-width="0.441059" stroke-miterlimit="10"/>
<path d="M99.4757 138.856C107.393 134.042 115.219 128.163 122.511 121.546L143.21 144.355C124.046 161.705 103.429 173.803 85.5702 179.347L76.3698 149.595C83.706 147.322 91.5586 143.671 99.4728 138.859L99.4757 138.856Z" fill="black" stroke="#F24E1E" stroke-width="0.441059" stroke-miterlimit="10"/>
<path d="M117.846 159.099C125.763 154.285 133.59 148.406 140.881 141.789L146.749 148.255C127.585 165.605 106.968 177.703 89.1093 183.246L94.743 169.841C102.079 167.568 109.932 163.917 117.846 159.105L117.846 159.099Z" fill="black" stroke="#F24E1E" stroke-width="0.441059" stroke-miterlimit="10"/>
<path d="M70.7386 163.002L89.1113 183.248L94.7421 169.84L76.3723 149.597L70.7386 163.002Z" fill="black" stroke="#F24E1E" stroke-width="0.441059" stroke-miterlimit="10"/>
<path d="M162.398 68.8644L177.355 61.1906C176.135 69.0042 172.995 77.734 168.108 86.8801C163.223 96.0294 156.692 105.414 148.885 114.5L139.623 111.512C145.868 104.241 151.094 96.7302 155 89.4135C158.906 82.0968 161.419 75.1114 162.396 68.8612L162.398 68.8644Z" fill="black" stroke="#F24E1E" stroke-width="0.441059" stroke-miterlimit="10"/>
<path d="M162.398 68.8621C161.421 75.1123 158.908 82.0978 155.002 89.4145C151.096 96.7312 145.87 104.242 139.625 111.513L136.086 107.613C142.332 100.342 147.557 92.8318 151.463 85.5151C155.369 78.1984 157.882 71.213 158.859 64.9628L162.398 68.8621Z" fill="black" stroke="#F24E1E" stroke-width="0.441059" stroke-miterlimit="10"/>
<path d="M177.355 61.191L173.816 57.2917L158.86 64.9655L162.398 68.8648L177.355 61.191Z" fill="black" stroke="#F24E1E" stroke-width="0.441059" stroke-miterlimit="10"/>
<path d="M177.229 85.2062L192.185 77.5324C190.965 85.346 187.825 94.0758 182.938 103.222C178.053 112.371 171.522 121.756 163.715 130.842L154.453 127.854C160.698 120.582 165.924 113.072 169.83 105.755C173.736 98.4386 176.249 91.4532 177.226 85.203L177.229 85.2062Z" fill="black" stroke="#F24E1E" stroke-width="0.441059" stroke-miterlimit="10"/>
<path d="M177.228 85.2049C176.251 91.4551 173.738 98.4405 169.832 105.757C165.926 113.074 160.7 120.584 154.455 127.855L150.917 123.956C157.162 116.685 162.387 109.175 166.293 101.858C170.199 94.5412 172.713 87.5558 173.689 81.3056L177.228 85.2049Z" fill="black" stroke="#F24E1E" stroke-width="0.441059" stroke-miterlimit="10"/>
<path d="M192.185 77.5338L188.646 73.6345L173.693 81.3116L177.229 85.2076L192.185 77.5338Z" fill="black" stroke="#F24E1E" stroke-width="0.441059" stroke-miterlimit="10"/>
<path d="M72.7129 163.222L47.6178 135.568C36.3872 123.193 48.8121 93.6272 75.3679 69.5283C101.924 45.4294 132.553 35.9241 143.783 48.2996L168.878 75.9532L72.7129 163.222Z" fill="black" stroke="#F24E1E" stroke-width="0.441059" stroke-miterlimit="10"/>
<path d="M141.127 141.994C141.084 142.033 141.044 142.069 141.001 142.108C127.757 154.097 113.509 162.459 101.165 166.289C96.9747 167.591 93.0045 168.366 89.3644 168.586C88.6399 168.632 87.9295 168.653 87.2303 168.652C87.1839 168.652 87.1403 168.65 87.0939 168.651C86.8473 168.649 86.6007 168.647 86.3568 168.637C86.0723 168.627 85.7936 168.613 85.5177 168.596C85.2999 168.586 85.0849 168.567 84.8671 168.551C84.8438 168.548 84.8177 168.548 84.7944 168.546C79.754 168.13 75.5906 166.401 72.7084 163.225C61.4778 150.85 73.9026 121.284 100.458 97.1854C127.014 73.0865 157.643 63.5812 168.874 75.9568C180.104 88.3323 167.682 117.895 141.127 141.994Z" fill="black" stroke="#F24E1E" stroke-width="0.441059" stroke-miterlimit="10"/>
<path d="M134.11 134.321C153.02 117.161 162.412 96.3228 156.233 86.224C156.777 86.6336 157.284 87.0886 157.745 87.5968C166.203 96.9167 156.846 119.183 136.844 137.334C116.843 155.485 93.7755 162.643 85.3178 153.323C84.8566 152.815 84.4528 152.267 84.0978 151.686C93.5483 158.816 115.203 151.484 134.113 134.324L134.11 134.321Z" fill="black" stroke="#F24E1E" stroke-width="0.441059" stroke-miterlimit="10"/>
<path d="M106.211 103.582C106.243 103.553 106.274 103.525 106.306 103.496C116.281 94.4676 127.013 88.1678 136.306 85.2828C139.46 84.3034 142.453 83.72 145.195 83.5546C145.74 83.5235 146.279 83.5034 146.801 83.5047C146.836 83.5028 146.871 83.5068 146.906 83.505C147.094 83.5061 147.277 83.5065 147.46 83.5128C147.675 83.5199 147.884 83.5321 148.093 83.5443C148.258 83.5545 148.421 83.5673 148.581 83.5768C148.598 83.5788 148.616 83.5807 148.636 83.5801C151.628 83.8288 154.205 84.6927 156.226 86.2143C162.405 96.3131 153.013 117.151 134.103 134.311C115.193 151.471 93.5384 158.803 84.0879 151.673C77.9061 141.577 87.2987 120.733 106.208 103.573L106.211 103.582Z" fill="black" stroke="#F24E1E" stroke-width="0.441059" stroke-miterlimit="10"/>
<path d="M173.725 43.1496L166.133 48.4887L162.338 57.5407L158.799 53.6413C157.708 48.6496 155.084 44.7877 151.076 42.2828C150.572 41.9682 150.045 41.6744 149.498 41.4046L138.975 42.946L135.437 39.0467L144.522 24.9034C152.417 24.4454 159.06 25.8239 164.071 28.9514C169.082 32.0848 172.364 36.9065 173.725 43.1496Z" fill="black" stroke="#F24E1E" stroke-width="0.441059" stroke-miterlimit="10"/>
<path d="M177.263 47.0451L162.337 57.5368C161.246 52.5451 158.622 48.6832 154.614 46.1783C150.606 43.6734 145.292 42.5726 138.977 42.9396L148.062 28.7963C155.957 28.3383 162.601 29.7168 167.612 32.8443C172.623 35.9777 175.904 40.7994 177.266 47.0425L177.263 47.0451Z" fill="black" stroke="#F24E1E" stroke-width="0.441059" stroke-miterlimit="10"/>
<path d="M144.521 24.9027L148.06 28.802L138.975 42.9453L135.436 39.046L144.521 24.9027Z" fill="black" stroke="#F24E1E" stroke-width="0.441059" stroke-miterlimit="10"/>
<path d="M188.559 59.4963L180.967 64.8354L177.172 73.8873L173.633 69.988C172.542 64.9963 169.918 61.1344 165.91 58.6295C165.406 58.3149 164.879 58.0211 164.332 57.7512L153.809 59.2927L150.27 55.3934L159.356 41.2501C167.251 40.7921 173.894 42.1706 178.905 45.2981C183.916 48.4315 187.198 53.2532 188.559 59.4963Z" fill="black" stroke="#F24E1E" stroke-width="0.441059" stroke-miterlimit="10"/>
<path d="M192.097 63.3917L177.171 73.8835C176.08 68.8918 173.456 65.0298 169.448 62.525C165.44 60.0201 160.126 58.9193 153.811 59.2863L162.896 45.143C170.791 44.685 177.435 46.0635 182.446 49.191C187.457 52.3244 190.738 57.1461 192.1 63.3891L192.097 63.3917Z" fill="black" stroke="#F24E1E" stroke-width="0.441059" stroke-miterlimit="10"/>
<path d="M159.354 41.2477L162.89 45.1438L153.805 59.2871L150.266 55.3878L159.354 41.2477Z" fill="black" stroke="#F24E1E" stroke-width="0.441059" stroke-miterlimit="10"/>
<path d="M55.6184 165.759L54.6843 164.729L53.6609 166.317C52.6147 166.382 51.5825 166.416 50.5728 166.411C50.5061 166.412 50.4393 166.408 50.3726 166.409C50.0157 166.406 49.6588 166.403 49.3047 166.392C43.3019 166.202 38.1638 164.817 34.1028 162.277C33.6073 161.967 33.1376 161.638 32.6763 161.297L33.4628 162.858L29.5606 158.558L29.4434 158.32C27.0147 155.546 25.3291 152.11 24.4487 148.079L39.3747 137.587C40.4657 142.579 43.0898 146.441 47.098 148.946C51.1062 151.451 56.4193 152.552 62.7347 152.185L66.2732 156.084L55.6126 165.758L55.6184 165.759Z" fill="black" stroke="#F24E1E" stroke-width="0.441059" stroke-miterlimit="10"/>
<path d="M27.9896 151.984L42.9156 141.492C44.0066 146.484 46.6307 150.346 50.6389 152.851C54.6471 155.355 59.9603 156.456 66.2756 156.089L57.1989 170.219C56.1527 170.283 55.1204 170.317 54.1108 170.313C54.0441 170.314 53.9773 170.309 53.9105 170.31C53.5537 170.307 53.1968 170.304 52.8426 170.293C46.8399 170.103 41.7018 168.719 37.6408 166.179C32.6298 163.045 29.3484 158.224 27.9867 151.981L27.9896 151.984Z" fill="black" stroke="#F24E1E" stroke-width="0.441059" stroke-miterlimit="10"/>
<path d="M39.3816 137.59L42.9172 141.487L27.9913 151.984L24.4527 148.085L39.3816 137.59Z" fill="black" stroke="#F24E1E" stroke-width="0.441059" stroke-miterlimit="10"/>
<path d="M62.8411 173.718L61.9069 172.688L60.8836 174.276C59.8374 174.341 58.8051 174.375 57.7955 174.37C57.7287 174.371 57.6619 174.367 57.5952 174.368C57.2383 174.365 56.8815 174.362 56.5273 174.351C50.5246 174.161 45.3865 172.776 41.3255 170.236C40.8299 169.926 40.3602 169.597 39.899 169.256L40.6854 170.817L36.7833 166.517L36.6661 166.279C34.2374 163.505 32.5518 160.068 31.6713 156.038L46.5973 145.546C47.6884 150.538 50.3124 154.4 54.3206 156.905C58.3288 159.41 63.642 160.511 69.9573 160.143L73.4959 164.043L62.8353 173.717L62.8411 173.718Z" fill="black" stroke="#F24E1E" stroke-width="0.441059" stroke-miterlimit="10"/>
<path d="M35.2103 159.939L50.1363 149.447C51.2273 154.439 53.8514 158.301 57.8596 160.806C61.8678 163.31 67.181 164.411 73.4963 164.044L64.4196 178.174C63.3734 178.238 62.3411 178.272 61.3315 178.268C61.2648 178.269 61.198 178.264 61.1313 178.265C60.7744 178.262 60.4175 178.26 60.0633 178.248C54.0606 178.058 48.9225 176.674 44.8615 174.134C39.8505 171 36.5691 166.179 35.2074 159.936L35.2103 159.939Z" fill="black" stroke="#F24E1E" stroke-width="0.441059" stroke-miterlimit="10"/>
<path d="M46.5974 145.542L50.1359 149.442L35.2071 159.936L31.6685 156.037L46.5974 145.542Z" fill="black" stroke="#F24E1E" stroke-width="0.441059" stroke-miterlimit="10"/>
<path d="M70.4524 182.105L69.5183 181.076L68.4949 182.664C67.4487 182.728 66.4164 182.762 65.4068 182.758C65.3401 182.759 65.2733 182.754 65.2066 182.755C64.8497 182.753 64.4928 182.75 64.1387 182.738C58.1359 182.548 52.9978 181.164 48.9368 178.624C48.4413 178.313 47.9715 177.985 47.5103 177.643L48.2968 179.205L44.3946 174.905L44.2774 174.667C41.8487 171.893 40.1631 168.456 39.2827 164.426L54.2086 153.934C55.2997 158.926 57.9238 162.788 61.932 165.293C65.9401 167.797 71.2533 168.898 77.5687 168.531L81.1072 172.431L70.4466 182.105L70.4524 182.105Z" fill="black" stroke="#F24E1E" stroke-width="0.441059" stroke-miterlimit="10"/>
<path d="M42.8216 168.326L57.7476 157.834C58.8387 162.826 61.4627 166.687 65.4709 169.192C69.4791 171.697 74.7923 172.798 81.1076 172.431L72.0309 186.561C70.9847 186.625 69.9525 186.659 68.9428 186.654C68.8761 186.656 68.8093 186.651 68.7426 186.652C68.3857 186.649 68.0288 186.646 67.6747 186.635C61.6719 186.445 56.5338 185.061 52.4728 182.52C47.4618 179.387 44.1804 174.565 42.8187 168.322L42.8216 168.326Z" fill="black" stroke="#F24E1E" stroke-width="0.441059" stroke-miterlimit="10"/>
<path d="M54.2126 153.934L57.7511 157.833L42.8223 168.328L39.2838 164.428L54.2126 153.934Z" fill="black" stroke="#F24E1E" stroke-width="0.441059" stroke-miterlimit="10"/>
<path d="M102.126 56.3859C94.2091 61.2003 86.3826 67.0791 79.0907 73.6963L73.2197 67.2268C82.3345 58.9552 92.1177 51.6039 102.013 45.588C111.909 39.5721 121.722 35.0094 130.891 32.1658L125.226 45.6462C117.893 47.9231 110.037 51.5708 102.123 56.3827L102.126 56.3859Z" fill="black" stroke="#F24E1E" stroke-width="0.441059" stroke-miterlimit="10"/>
<path d="M102.015 45.5913C92.1197 51.6072 82.3366 58.9586 73.2218 67.2301L69.6832 63.3308C78.798 55.0593 88.5811 47.7079 98.4768 41.692C108.372 35.6761 118.185 31.1134 127.354 28.2698L130.893 32.1691C121.724 35.0127 111.911 39.5754 102.015 45.5913Z" fill="black" stroke="#F24E1E" stroke-width="0.441059" stroke-miterlimit="10"/>
<path d="M116.96 72.7326C109.043 77.547 101.217 83.4258 93.9247 90.043L88.0537 83.5735C97.1685 75.3019 106.952 67.9506 116.847 61.9347C126.743 55.9187 136.556 51.3561 145.725 48.5125L140.06 61.9929C132.727 64.2698 124.871 67.9175 116.957 72.7294L116.96 72.7326Z" fill="black" stroke="#F24E1E" stroke-width="0.441059" stroke-miterlimit="10"/>
<path d="M116.845 61.9341C106.95 67.95 97.1667 75.3013 88.0518 83.5729L78.5507 73.103C87.6655 64.8315 97.4486 57.4801 107.344 51.4642C117.24 45.4483 127.053 40.8857 136.222 38.042L145.723 48.5119C136.554 51.3555 126.741 55.9182 116.845 61.9341Z" fill="black" stroke="#F24E1E" stroke-width="0.441059" stroke-miterlimit="10"/>
<path d="M71.0859 100.973L52.7161 80.7301L61.9806 83.7162L80.3504 103.959L71.0859 100.973Z" fill="black" stroke="#F24E1E" stroke-width="0.441059" stroke-miterlimit="10"/>
<path d="M33.4943 108.35C28.6097 117.5 25.4673 126.226 24.2474 134.04L42.6172 154.282L71.0843 100.969L52.7145 80.7266C44.9074 89.8133 38.379 99.2009 33.4914 108.347" fill="black"/>
<path d="M33.4943 108.35C28.6097 117.5 25.4673 126.226 24.2474 134.04L42.6172 154.282L71.0843 100.969L52.7145 80.7266C44.9074 89.8133 38.379 99.2009 33.4914 108.347" stroke="#F24E1E" stroke-width="0.441059" stroke-miterlimit="10"/>
<path d="M57.5744 146.609L42.6182 154.282C43.8381 146.469 46.9775 137.739 51.8651 128.593C56.7497 119.444 63.2811 110.059 71.0883 100.973L80.3499 103.961C74.1048 111.233 68.8791 118.743 64.9731 126.06C61.0671 133.376 58.5538 140.362 57.5773 146.612L57.5744 146.609Z" fill="black" stroke="#F24E1E" stroke-width="0.441059" stroke-miterlimit="10"/>
</g>
<defs>
<clipPath id="clip0_3112_3768">
<rect width="187.891" height="115.116" fill="white" transform="matrix(0.740533 -0.67202 -0.67202 -0.740533 77.3613 211.515)"/>
</clipPath>
</defs>
</svg>
