<svg width="144" height="169" viewBox="0 0 144 169" fill="none" xmlns="http://www.w3.org/2000/svg">
<g clip-path="url(#clip0_3112_3767)">
<path d="M49.0974 97.4895C51.5939 90.6513 54.8581 83.6628 58.7103 76.919L53.4231 73.8989C43.3284 91.6147 37.1396 109.333 35.2897 123.672L44.1643 116.769C44.9217 110.879 46.5982 104.326 49.0932 97.4906L49.0974 97.4895Z" fill="black" stroke="#0A84FF" stroke-width="0.441059" stroke-miterlimit="10"/>
<path d="M45.9021 95.6721C48.3986 88.8339 51.6628 81.8454 55.5149 75.1016L50.2278 72.0815C40.1331 89.7973 33.9443 107.515 32.0944 121.855L40.969 114.952C41.7263 109.062 43.4029 102.509 45.8979 95.6733L45.9021 95.6721Z" fill="black" stroke="#0A84FF" stroke-width="0.441059" stroke-miterlimit="10"/>
<path d="M35.2898 123.677L32.1016 121.855L40.9762 114.952L44.1645 116.774L35.2898 123.677Z" fill="black" stroke="#0A84FF" stroke-width="0.441059" stroke-miterlimit="10"/>
<path d="M49.0933 97.4937C51.5899 90.6555 54.854 83.667 58.7062 76.9232L40.0559 66.27C29.9612 83.9858 23.7724 101.704 21.9225 116.043L44.1629 116.775C44.9202 110.885 46.5968 104.332 49.0918 97.4964L49.0933 97.4937Z" fill="black" stroke="#0A84FF" stroke-width="0.441059" stroke-miterlimit="10"/>
<path d="M32.5427 88.0374C35.0393 81.1992 38.3034 74.2106 42.1556 67.4668L36.8684 64.4467C26.7737 82.1626 20.5849 99.8804 18.735 114.22L27.6096 107.317C28.367 101.427 30.0435 94.8741 32.5386 88.0385L32.5427 88.0374Z" fill="black" stroke="#0A84FF" stroke-width="0.441059" stroke-miterlimit="10"/>
<path d="M35.2904 123.676L18.7363 114.22L27.6136 107.318L44.165 116.772L35.2904 123.676Z" fill="black" stroke="#0A84FF" stroke-width="0.441059" stroke-miterlimit="10"/>
<path d="M91.4986 36.6853L95.2039 24.0573C89.7892 26.5544 83.9477 30.6583 78.015 36.1402C72.0797 41.6205 66.1702 48.3667 60.622 55.9957L63.8333 62.2355C68.2733 56.1324 73.0029 50.7344 77.7494 46.352C82.4959 41.9696 87.17 38.6849 91.5012 36.6868L91.4986 36.6853Z" fill="black" stroke="#0A84FF" stroke-width="0.441059" stroke-miterlimit="10"/>
<path d="M91.5038 36.6847C87.1726 38.6828 82.4985 41.9675 77.752 46.3499C73.0055 50.7323 68.2759 56.1303 63.8359 62.2334L67.0242 64.0546C71.4642 57.9515 76.1938 52.5535 80.9403 48.1711C85.6868 43.7886 90.3609 40.5039 94.6921 38.5059L91.5038 36.6847Z" fill="black" stroke="#0A84FF" stroke-width="0.441059" stroke-miterlimit="10"/>
<path d="M95.2057 24.0546L98.394 25.8758L94.6887 38.5039L91.5004 36.6827L95.2057 24.0546Z" fill="black" stroke="#0A84FF" stroke-width="0.441059" stroke-miterlimit="10"/>
<path d="M78.1392 29.0506L81.8445 16.4225C76.4298 18.9197 70.5883 23.0236 64.6557 28.5054C58.7204 33.9857 52.8109 40.7319 47.2626 48.3609L50.474 54.6008C54.9139 48.4976 59.6435 43.0997 64.39 38.7173C69.1365 34.3348 73.8106 31.0501 78.1418 29.0521L78.1392 29.0506Z" fill="black" stroke="#0A84FF" stroke-width="0.441059" stroke-miterlimit="10"/>
<path d="M78.1366 29.049C73.8054 31.047 69.1313 34.3317 64.3848 38.7142C59.6383 43.0966 54.9087 48.4945 50.4688 54.5977L53.657 56.4188C58.097 50.3157 62.8266 44.9178 67.5731 40.5353C72.3196 36.1529 76.9937 32.8682 81.3249 30.8701L78.1366 29.049Z" fill="black" stroke="#0A84FF" stroke-width="0.441059" stroke-miterlimit="10"/>
<path d="M81.8464 16.4199L85.0347 18.241L81.3266 30.8676L78.141 29.0479L81.8464 16.4199Z" fill="black" stroke="#0A84FF" stroke-width="0.441059" stroke-miterlimit="10"/>
<path d="M34.8965 122.265L57.5075 135.18C67.6264 140.96 87.1997 125.736 101.229 101.176C115.257 76.6158 118.429 52.0222 108.31 46.2422L85.6986 33.3266L34.8965 122.265Z" fill="black" stroke="#0A84FF" stroke-width="0.441059" stroke-miterlimit="10"/>
<path d="M41.9768 67.3291C41.9542 67.3688 41.933 67.4058 41.9104 67.4454C34.9349 79.6881 30.6571 91.933 29.3799 101.844C28.945 105.209 28.8589 108.304 29.1288 111.041C29.1813 111.586 29.2496 112.116 29.3323 112.633C29.3374 112.667 29.344 112.699 29.349 112.733C29.3793 112.915 29.4096 113.097 29.4455 113.275C29.4854 113.484 29.5283 113.687 29.5727 113.888C29.6055 114.047 29.644 114.202 29.681 114.36C29.6857 114.376 29.6888 114.396 29.6934 114.412C30.5798 118.056 32.2972 120.782 34.8942 122.265C45.0131 128.045 64.5864 112.821 78.6153 88.2608C92.6441 63.7009 95.8152 39.1073 85.6964 33.3273C75.5775 27.5473 56.0057 42.7692 41.9768 67.3291Z" fill="black" stroke="#0A84FF" stroke-width="0.441059" stroke-miterlimit="10"/>
<path d="M48.2567 70.9507C58.2463 53.4622 71.9672 42.2618 79.8746 44.7703C79.5195 44.4519 79.1365 44.17 78.721 43.9326C71.1005 39.5798 56.3591 51.0454 45.7929 69.5433C35.2267 88.0413 32.8389 106.563 40.4594 110.916C40.8749 111.154 41.3123 111.34 41.7669 111.484C35.5879 105.95 38.2645 88.4376 48.2541 70.9492L48.2567 70.9507Z" fill="black" stroke="#0A84FF" stroke-width="0.441059" stroke-miterlimit="10"/>
<path d="M73.3913 85.3056C73.4079 85.2765 73.4245 85.2475 73.4411 85.2184C78.6939 75.9977 81.9171 66.7742 82.8799 59.3123C83.2069 56.7794 83.2711 54.4468 83.0674 52.3853C83.0257 51.9759 82.9767 51.573 82.9146 51.187C82.9119 51.1609 82.9049 51.1359 82.9022 51.1098C82.8793 50.9706 82.8575 50.8355 82.8316 50.7015C82.8014 50.5441 82.7682 50.3919 82.735 50.2398C82.7084 50.1194 82.6802 50.0017 82.6548 49.8855C82.6513 49.873 82.6478 49.8605 82.6459 49.8454C82.1183 47.683 81.2019 45.9539 79.8826 44.7692C71.9752 42.2607 58.2543 53.4611 48.2648 70.9496C38.2752 88.4381 35.5986 105.951 41.7776 111.485C49.6835 113.996 63.4086 102.794 73.3982 85.306L73.3913 85.3056Z" fill="black" stroke="#0A84FF" stroke-width="0.441059" stroke-miterlimit="10"/>
<path d="M108.46 23.0523L105.552 29.7572L99.5583 34.4121L102.747 36.2333C106.425 36.0213 109.48 37.1737 111.731 39.6269C112.014 39.9357 112.285 40.2656 112.541 40.6151L112.678 48.7122L115.866 50.5334L124.861 40.9269C124.261 34.9943 122.502 30.362 119.69 27.2944C116.874 24.2278 113.06 22.7851 108.46 23.0523Z" fill="black" stroke="#0A84FF" stroke-width="0.441059" stroke-miterlimit="10"/>
<path d="M105.274 21.2346L99.5606 34.4155C103.239 34.2035 106.294 35.356 108.545 37.8091C110.797 40.2623 112.202 43.9672 112.681 48.713L121.677 39.1065C121.077 33.1739 119.318 28.5416 116.506 25.474C113.69 22.4074 109.876 20.9647 105.275 21.2319L105.274 21.2346Z" fill="black" stroke="#0A84FF" stroke-width="0.441059" stroke-miterlimit="10"/>
<path d="M124.869 40.9266L121.681 39.1055L112.686 48.7119L115.874 50.5331L124.869 40.9266Z" fill="black" stroke="#0A84FF" stroke-width="0.441059" stroke-miterlimit="10"/>
<path d="M95.1005 15.4176L92.1926 22.1225L86.1989 26.7773L89.3872 28.5985C93.0657 28.3865 96.1202 29.539 98.3717 31.9921C98.6545 32.3009 98.9253 32.6308 99.1814 32.9803L99.3182 41.0774L102.507 42.8986L111.502 33.2922C110.902 27.3596 109.143 22.7273 106.331 19.6596C103.515 16.5931 99.7007 15.1503 95.1005 15.4176Z" fill="black" stroke="#0A84FF" stroke-width="0.441059" stroke-miterlimit="10"/>
<path d="M91.9087 13.593L86.1954 26.7739C89.8739 26.5619 92.9284 27.7144 95.1798 30.1675C97.4313 32.6207 98.8371 36.3256 99.3162 41.0714L108.311 31.4649C107.712 25.5323 105.953 20.9 103.141 17.8324C100.325 14.7658 96.5104 13.3231 91.9102 13.5903L91.9087 13.593Z" fill="black" stroke="#0A84FF" stroke-width="0.441059" stroke-miterlimit="10"/>
<path d="M111.499 33.2894L108.314 31.4697L99.3184 41.0762L102.507 42.8973L111.499 33.2894Z" fill="black" stroke="#0A84FF" stroke-width="0.441059" stroke-miterlimit="10"/>
<path d="M35.0993 135.43L35.941 135.911L34.9313 136.992C35.0082 137.779 35.1051 138.549 35.2267 139.295C35.2337 139.345 35.2449 139.393 35.2519 139.443C35.2957 139.706 35.3396 139.97 35.3891 140.229C36.2278 144.63 37.8147 148.148 40.0975 150.633C40.3765 150.936 40.665 151.216 40.9621 151.488L39.7593 151.225L43.2753 153.233L43.4584 153.271C45.7161 154.501 48.358 155.046 51.328 154.875L57.0413 141.694C53.3628 141.906 50.3083 140.753 48.0569 138.3C45.8054 135.847 44.3996 132.142 43.9205 127.396L40.7322 125.575L35.1004 135.435L35.0993 135.43Z" fill="black" stroke="#0A84FF" stroke-width="0.441059" stroke-miterlimit="10"/>
<path d="M48.1375 153.055L53.8508 139.874C50.1724 140.086 47.1179 138.933 44.8664 136.48C42.6149 134.027 41.2091 130.322 40.73 125.576L31.7435 135.174C31.8204 135.96 31.9173 136.731 32.0389 137.477C32.0459 137.526 32.0571 137.575 32.0641 137.624C32.1079 137.888 32.1518 138.151 32.2013 138.411C33.04 142.811 34.6269 146.329 36.9096 148.814C39.7257 151.881 43.5399 153.323 48.1402 153.056L48.1375 153.055Z" fill="black" stroke="#0A84FF" stroke-width="0.441059" stroke-miterlimit="10"/>
<path d="M57.0351 141.691L53.8495 139.871L48.132 153.053L51.3203 154.874L57.0351 141.691Z" fill="black" stroke="#0A84FF" stroke-width="0.441059" stroke-miterlimit="10"/>
<path d="M28.5876 131.716L29.4292 132.196L28.4196 133.277C28.4965 134.064 28.5934 134.835 28.7149 135.58C28.722 135.63 28.7331 135.678 28.7402 135.728C28.784 135.991 28.8279 136.255 28.8774 136.514C29.716 140.915 31.303 144.433 33.5857 146.918C33.8648 147.221 34.1533 147.501 34.4504 147.773L33.2476 147.51L36.7635 149.518L36.9467 149.556C39.2044 150.786 41.8463 151.331 44.8163 151.16L50.5296 137.979C46.8511 138.191 43.7966 137.038 41.5451 134.585C39.2937 132.132 37.8879 128.427 37.4088 123.681L34.2205 121.86L28.5887 131.72L28.5876 131.716Z" fill="black" stroke="#0A84FF" stroke-width="0.441059" stroke-miterlimit="10"/>
<path d="M41.6317 149.339L47.3449 136.158C43.6665 136.37 40.612 135.217 38.3605 132.764C36.109 130.311 34.7033 126.606 34.2242 121.86L25.2377 131.458C25.3145 132.245 25.4115 133.015 25.533 133.761C25.54 133.81 25.5512 133.859 25.5582 133.908C25.6021 134.172 25.6459 134.435 25.6954 134.695C26.5341 139.096 28.1211 142.613 30.4038 145.098C33.2198 148.165 37.0341 149.607 41.6343 149.34L41.6317 149.339Z" fill="black" stroke="#0A84FF" stroke-width="0.441059" stroke-miterlimit="10"/>
<path d="M50.5319 137.977L47.3436 136.156L41.6288 149.34L44.8171 151.161L50.5319 137.977Z" fill="black" stroke="#0A84FF" stroke-width="0.441059" stroke-miterlimit="10"/>
<path d="M21.7321 127.796L22.5738 128.276L21.5642 129.357C21.641 130.144 21.738 130.915 21.8595 131.661C21.8665 131.71 21.8777 131.759 21.8847 131.808C21.9285 132.071 21.9724 132.335 22.0219 132.594C22.8606 136.995 24.4475 140.513 26.7303 142.998C27.0093 143.301 27.2978 143.581 27.5949 143.853L26.3922 143.59L29.9081 145.598L30.0912 145.636C32.349 146.866 34.9908 147.411 37.9608 147.24L43.6741 134.059C39.9956 134.271 36.9411 133.119 34.6897 130.665C32.4382 128.212 31.0324 124.507 30.5533 119.762L27.365 117.94L21.7332 127.8L21.7321 127.796Z" fill="black" stroke="#0A84FF" stroke-width="0.441059" stroke-miterlimit="10"/>
<path d="M34.7703 145.419L40.4836 132.238C36.8052 132.45 33.7507 131.297 31.4992 128.844C29.2477 126.391 27.842 122.686 27.3628 117.94L18.3763 127.538C18.4532 128.325 18.5501 129.095 18.6717 129.841C18.6787 129.89 18.6899 129.939 18.6969 129.988C18.7407 130.252 18.7846 130.515 18.8341 130.775C19.6728 135.176 21.2597 138.693 23.5425 141.178C26.3585 144.245 30.1728 145.688 34.773 145.42L34.7703 145.419Z" fill="black" stroke="#0A84FF" stroke-width="0.441059" stroke-miterlimit="10"/>
<path d="M43.6725 134.057L40.4843 132.236L34.7695 145.42L37.9577 147.241L43.6725 134.057Z" fill="black" stroke="#0A84FF" stroke-width="0.441059" stroke-miterlimit="10"/>
<path d="M107.445 78.7047C104.948 85.5429 101.684 92.5314 97.8322 99.2752L103.122 102.297C107.937 93.8671 112.019 85.1308 115.139 76.584C118.258 68.0372 120.353 59.8482 121.301 52.4865L112.377 59.4275C111.617 65.316 109.943 71.8706 107.448 78.7062L107.445 78.7047Z" fill="black" stroke="#0A84FF" stroke-width="0.441059" stroke-miterlimit="10"/>
<path d="M115.137 76.5817C112.018 85.1285 107.936 93.8647 103.121 102.294L106.309 104.116C111.124 95.6859 115.206 86.9497 118.326 78.4028C121.445 69.856 123.54 61.6671 124.488 54.3053L121.3 52.4841C120.352 59.8459 118.257 68.0348 115.137 76.5817Z" fill="black" stroke="#0A84FF" stroke-width="0.441059" stroke-miterlimit="10"/>
<path d="M94.0778 71.0699C91.5813 77.9081 88.3171 84.8966 84.465 91.6405L89.7548 94.6621C94.57 86.2323 98.6523 77.4961 101.772 68.9492C104.891 60.4024 106.986 52.2134 107.934 44.8517L99.0094 51.7928C98.2494 57.6813 96.5755 64.2358 94.0805 71.0714L94.0778 71.0699Z" fill="black" stroke="#0A84FF" stroke-width="0.441059" stroke-miterlimit="10"/>
<path d="M101.772 68.9469C98.6529 77.4937 94.5706 86.23 89.7554 94.6597L98.3161 99.5497C103.131 91.1199 107.214 82.3837 110.333 73.8368C113.452 65.29 115.547 57.1011 116.495 49.7393L107.935 44.8494C106.987 52.2111 104.891 60.4001 101.772 68.9469Z" fill="black" stroke="#0A84FF" stroke-width="0.441059" stroke-miterlimit="10"/>
<path d="M79.3626 110.762L95.914 120.216L92.7042 113.974L76.1528 104.519L79.3626 110.762Z" fill="black" stroke="#0A84FF" stroke-width="0.441059" stroke-miterlimit="10"/>
<path d="M78.5196 140.073C72.5843 145.553 66.7454 149.658 61.3307 152.155L44.7793 142.701L79.3639 110.764L95.9153 120.219C90.367 127.848 84.4549 134.592 78.5222 140.074" fill="black"/>
<path d="M78.5196 140.073C72.5843 145.553 66.7454 149.658 61.3307 152.155L44.7793 142.701L79.3639 110.764L95.9153 120.219C90.367 127.848 84.4549 134.592 78.5222 140.074" stroke="#0A84FF" stroke-width="0.441059" stroke-miterlimit="10"/>
<path d="M48.4838 130.073L44.7784 142.701C50.1932 140.204 56.0347 136.1 61.9673 130.618C67.9026 125.138 73.8121 118.391 79.3604 110.762L76.149 104.523C71.7091 110.626 66.9795 116.024 62.233 120.406C57.4865 124.788 52.8124 128.073 48.4811 130.071L48.4838 130.073Z" fill="black" stroke="#0A84FF" stroke-width="0.441059" stroke-miterlimit="10"/>
</g>
<defs>
<clipPath id="clip0_3112_3767">
<rect width="148.196" height="80.2727" fill="white" transform="translate(0 128.683) rotate(-60.2646)"/>
</clipPath>
</defs>
</svg>
