<svg width="134" height="168" viewBox="0 0 134 168" fill="none" xmlns="http://www.w3.org/2000/svg">
<g clip-path="url(#clip0_3112_3769)">
<path d="M88.3318 99.1494C86.5213 92.1431 83.9656 84.9142 80.8043 77.8709L86.3288 75.3913C94.6089 93.8914 99.0231 112.018 99.4692 126.385L91.3524 118.7C91.1716 112.8 90.1451 106.154 88.3358 99.1509L88.3318 99.1494Z" fill="black" stroke="#17CF8D" stroke-width="0.441059" stroke-miterlimit="10"/>
<path d="M91.6658 97.6533C89.8553 90.647 87.2995 83.4181 84.1382 76.3748L89.6628 73.8952C97.9429 92.3954 102.357 110.522 102.803 124.888L94.6863 117.204C94.5056 111.304 93.4791 104.658 91.6698 97.6548L91.6658 97.6533Z" fill="black" stroke="#17CF8D" stroke-width="0.441059" stroke-miterlimit="10"/>
<path d="M99.4635 126.387L102.795 124.892L94.6781 117.208L91.3467 118.703L99.4635 126.387Z" fill="black" stroke="#17CF8D" stroke-width="0.441059" stroke-miterlimit="10"/>
<path d="M88.3298 99.1508C86.5193 92.1445 83.9635 84.9156 80.8022 77.8723L100.29 69.1256C108.57 87.6258 112.984 105.752 113.43 120.119L91.3475 118.703C91.1668 112.802 90.1403 106.157 88.331 99.1536L88.3298 99.1508Z" fill="black" stroke="#17CF8D" stroke-width="0.441059" stroke-miterlimit="10"/>
<path d="M105.625 91.3876C103.814 84.3813 101.259 77.1525 98.0972 70.1091L103.622 67.6295C111.902 86.1297 116.316 104.256 116.762 118.623L108.645 110.939C108.465 105.038 107.438 98.3927 105.629 91.3891L105.625 91.3876Z" fill="black" stroke="#17CF8D" stroke-width="0.441059" stroke-miterlimit="10"/>
<path d="M99.4626 126.387L116.76 118.623L108.64 110.94L91.3458 118.703L99.4626 126.387Z" fill="black" stroke="#17CF8D" stroke-width="0.441059" stroke-miterlimit="10"/>
<path d="M52.2386 34.8891L49.7908 22.0377C54.9088 25.0295 60.2939 29.6521 65.6362 35.6469C70.9813 41.6404 76.1786 48.884 80.9331 56.9663L77.1522 62.8315C73.3472 56.3655 69.1875 50.5695 64.913 45.7766C60.6385 40.9838 56.3296 37.284 52.2358 34.8904L52.2386 34.8891Z" fill="black" stroke="#17CF8D" stroke-width="0.441059" stroke-miterlimit="10"/>
<path d="M52.232 34.8919C56.3259 37.2856 60.6347 40.9853 64.9093 45.7782C69.1838 50.571 73.3435 56.3671 77.1484 62.833L73.817 64.3283C70.0121 57.8623 65.8524 52.0663 61.5778 47.2734C57.3033 42.4806 52.9944 38.7808 48.9006 36.3872L52.232 34.8919Z" fill="black" stroke="#17CF8D" stroke-width="0.441059" stroke-miterlimit="10"/>
<path d="M49.7827 22.0404L46.4513 23.5356L48.8991 36.3871L52.2305 34.8918L49.7827 22.0404Z" fill="black" stroke="#17CF8D" stroke-width="0.441059" stroke-miterlimit="10"/>
<path d="M66.1975 28.6235L63.7498 15.7721C68.8677 18.7639 74.2529 23.3865 79.5952 29.3812C84.9403 35.3747 90.1376 42.6184 94.8921 50.7007L91.1112 56.5658C87.3062 50.0999 83.1465 44.3039 78.872 39.511C74.5975 34.7182 70.2886 31.0184 66.1948 28.6248L66.1975 28.6235Z" fill="black" stroke="#17CF8D" stroke-width="0.441059" stroke-miterlimit="10"/>
<path d="M66.1969 28.6234C70.2907 31.017 74.5996 34.7168 78.8741 39.5096C83.1486 44.3025 87.3083 50.0985 91.1133 56.5645L87.7819 58.0597C83.9769 51.5938 79.8172 45.7977 75.5427 41.0049C71.2682 36.212 66.9593 32.5123 62.8655 30.1186L66.1969 28.6234Z" fill="black" stroke="#17CF8D" stroke-width="0.441059" stroke-miterlimit="10"/>
<path d="M63.7476 15.7718L60.4161 17.2671L62.8667 30.1172L66.1953 28.6232L63.7476 15.7718Z" fill="black" stroke="#17CF8D" stroke-width="0.441059" stroke-miterlimit="10"/>
<path d="M99.9961 125.015L76.3701 135.619C65.7969 140.364 47.8949 123.417 36.3819 97.7668C24.869 72.1161 24.1055 47.4767 34.6787 42.7311L58.3047 32.1269L99.9961 125.015Z" fill="black" stroke="#17CF8D" stroke-width="0.441059" stroke-miterlimit="10"/>
<path d="M98.2937 69.9821C98.3123 70.0235 98.3296 70.0621 98.3482 70.1035C104.07 82.8882 107.121 95.4156 107.428 105.345C107.533 108.716 107.32 111.787 106.788 114.469C106.684 115.003 106.565 115.521 106.433 116.024C106.425 116.058 106.415 116.089 106.407 116.122C106.359 116.3 106.312 116.477 106.259 116.65C106.2 116.852 106.137 117.049 106.074 117.243C106.026 117.397 105.973 117.547 105.921 117.7C105.915 117.716 105.91 117.735 105.904 117.751C104.675 121.27 102.712 123.803 99.9982 125.021C89.4251 129.766 71.5231 112.819 60.0101 87.1684C48.4972 61.5177 47.7337 36.8783 58.3068 32.1327C68.88 27.3871 86.7807 44.3314 98.2937 69.9821Z" fill="black" stroke="#17CF8D" stroke-width="0.441059" stroke-miterlimit="10"/>
<path d="M91.7198 72.9702C83.5218 54.7051 71.0234 42.3028 62.955 44.0241C63.3372 43.7432 63.7435 43.5011 64.1777 43.3063C72.1402 39.7324 85.623 52.4953 94.2942 71.8148C102.965 91.1342 103.54 109.691 95.5775 113.265C95.1433 113.46 94.6924 113.602 94.2285 113.701C100.879 108.82 99.9206 91.2341 91.7226 72.969L91.7198 72.9702Z" fill="black" stroke="#17CF8D" stroke-width="0.441059" stroke-miterlimit="10"/>
<path d="M65.458 84.7596C65.4444 84.7292 65.4307 84.6988 65.4171 84.6685C61.1087 75.0397 58.8094 65.6033 58.5771 58.1274C58.4981 55.5897 58.6598 53.2756 59.0605 51.2554C59.1414 50.8544 59.2287 50.4604 59.3274 50.0845C59.3327 50.0589 59.342 50.0348 59.3472 50.0093C59.3833 49.8737 59.4179 49.7421 59.4565 49.6121C59.5016 49.4592 59.5491 49.3118 59.5967 49.1645C59.6347 49.048 59.6739 48.9342 59.7103 48.8217C59.7149 48.8097 59.7196 48.7976 59.723 48.7828C60.454 46.694 61.528 45.0713 62.9481 44.026C71.0165 42.3046 83.5148 54.707 91.7129 72.9721C99.9109 91.2372 100.869 108.823 94.2188 113.704C86.1516 115.428 73.6492 103.024 65.4512 84.7593L65.458 84.7596Z" fill="black" stroke="#17CF8D" stroke-width="0.441059" stroke-miterlimit="10"/>
<path d="M36.7641 19.7744L38.9946 26.6883L44.4772 31.8707L41.1457 33.366C37.5256 32.8023 34.3911 33.6488 31.9259 35.8595C31.6161 36.1378 31.3162 36.4382 31.029 36.7594L30.1116 44.758L26.7802 46.2532L18.8051 35.8827C19.9715 30.0703 22.16 25.6561 25.2392 22.8913C28.3225 20.128 32.2369 19.0674 36.7641 19.7744Z" fill="black" stroke="#17CF8D" stroke-width="0.441059" stroke-miterlimit="10"/>
<path d="M40.0881 18.2784L44.4697 31.87C40.8495 31.3064 37.7151 32.1529 35.2499 34.3635C32.7846 36.5742 31.0355 40.1049 30.103 44.7545L22.1279 34.384C23.2943 28.5716 25.4827 24.1574 28.562 21.3926C31.6452 18.6293 35.5596 17.5687 40.0868 18.2757L40.0881 18.2784Z" fill="black" stroke="#17CF8D" stroke-width="0.441059" stroke-miterlimit="10"/>
<path d="M18.799 35.8854L22.1304 34.3902L30.1055 44.7607L26.7741 46.256L18.799 35.8854Z" fill="black" stroke="#17CF8D" stroke-width="0.441059" stroke-miterlimit="10"/>
<path d="M50.723 13.5087L52.9535 20.4227L58.4361 25.6051L55.1047 27.1003C51.4845 26.5367 48.3501 27.3832 45.8849 29.5939C45.5751 29.8722 45.2752 30.1726 44.988 30.4938L44.0706 38.4924L40.7392 39.9876L32.7641 29.6171C33.9305 23.8047 36.1189 19.3904 39.1982 16.6256C42.2815 13.8623 46.1959 12.8018 50.723 13.5087Z" fill="black" stroke="#17CF8D" stroke-width="0.441059" stroke-miterlimit="10"/>
<path d="M54.0548 12.0099L58.4365 25.6015C54.8163 25.0378 51.6819 25.8843 49.2167 28.095C46.7514 30.3057 45.0023 33.8363 44.0698 38.486L36.0947 28.1154C37.2611 22.3031 39.4495 17.8888 42.5288 15.124C45.612 12.3607 49.5264 11.3001 54.0536 12.0071L54.0548 12.0099Z" fill="black" stroke="#17CF8D" stroke-width="0.441059" stroke-miterlimit="10"/>
<path d="M32.7666 29.6166L36.0952 28.1226L44.0703 38.4932L40.7389 39.9884L32.7666 29.6166Z" fill="black" stroke="#17CF8D" stroke-width="0.441059" stroke-miterlimit="10"/>
<path d="M98.5225 138.033L97.643 138.427L98.5378 139.594C98.3858 140.365 98.2154 141.118 98.0231 141.845C98.0114 141.893 97.9957 141.94 97.9839 141.988C97.9151 142.245 97.8463 142.501 97.7722 142.753C96.5171 147.027 94.6068 150.355 92.1075 152.594C91.802 152.867 91.4895 153.117 91.1691 153.357L92.385 153.212L88.7112 154.861L88.5263 154.881C86.173 155.881 83.5056 156.166 80.5827 155.711L76.201 142.119C79.8212 142.683 82.9556 141.836 85.4208 139.626C87.8861 137.415 89.6352 133.884 90.5677 129.235L93.8991 127.739L98.5209 138.037L98.5225 138.033Z" fill="black" stroke="#17CF8D" stroke-width="0.441059" stroke-miterlimit="10"/>
<path d="M83.9223 154.211L79.5406 140.62C83.1608 141.183 86.2952 140.337 88.7604 138.126C91.2257 135.915 92.9748 132.385 93.9073 127.735L101.875 138.096C101.723 138.867 101.552 139.62 101.36 140.346C101.348 140.395 101.332 140.442 101.321 140.49C101.252 140.746 101.183 141.003 101.109 141.255C99.854 145.529 97.9436 148.856 95.4443 151.096C92.361 153.859 88.4467 154.92 83.9195 154.213L83.9223 154.211Z" fill="black" stroke="#17CF8D" stroke-width="0.441059" stroke-miterlimit="10"/>
<path d="M76.2036 142.112L79.5322 140.618L83.918 154.211L80.5865 155.706L76.2036 142.112Z" fill="black" stroke="#17CF8D" stroke-width="0.441059" stroke-miterlimit="10"/>
<path d="M105.323 134.98L104.444 135.375L105.339 136.541C105.187 137.313 105.016 138.066 104.824 138.792C104.812 138.84 104.796 138.887 104.785 138.935C104.716 139.192 104.647 139.448 104.573 139.7C103.318 143.974 101.408 147.302 98.9083 149.541C98.6028 149.814 98.2902 150.064 97.9699 150.304L99.1858 150.159L95.512 151.808L95.3271 151.828C92.9737 152.828 90.3064 153.113 87.3834 152.658L83.0017 139.066C86.6219 139.63 89.7564 138.784 92.2216 136.573C94.6869 134.362 96.436 130.832 97.3685 126.182L100.7 124.687L105.322 134.984L105.323 134.98Z" fill="black" stroke="#17CF8D" stroke-width="0.441059" stroke-miterlimit="10"/>
<path d="M90.7191 151.161L86.3374 137.569C89.9576 138.133 93.0921 137.286 95.5573 135.075C98.0226 132.865 99.7717 129.334 100.704 124.684L108.672 135.045C108.519 135.816 108.349 136.569 108.157 137.296C108.145 137.344 108.129 137.391 108.118 137.439C108.049 137.696 107.98 137.952 107.906 138.204C106.651 142.478 104.74 145.806 102.241 148.045C99.1579 150.808 95.2435 151.869 90.7164 151.162L90.7191 151.161Z" fill="black" stroke="#17CF8D" stroke-width="0.441059" stroke-miterlimit="10"/>
<path d="M83.0016 139.061L86.333 137.565L90.716 151.16L87.3845 152.655L83.0016 139.061Z" fill="black" stroke="#17CF8D" stroke-width="0.441059" stroke-miterlimit="10"/>
<path d="M112.493 131.762L111.614 132.157L112.509 133.324C112.356 134.095 112.186 134.848 111.994 135.574C111.982 135.622 111.966 135.669 111.955 135.718C111.886 135.974 111.817 136.23 111.743 136.483C110.488 140.756 108.577 144.084 106.078 146.323C105.773 146.596 105.46 146.846 105.14 147.086L106.356 146.942L102.682 148.59L102.497 148.61C100.144 149.61 97.4763 149.896 94.5534 149.44L90.1717 135.849C93.7919 136.412 96.9263 135.566 99.3915 133.355C101.857 131.144 103.606 127.614 104.538 122.964L107.87 121.469L112.492 131.766L112.493 131.762Z" fill="black" stroke="#17CF8D" stroke-width="0.441059" stroke-miterlimit="10"/>
<path d="M97.8832 147.946L93.5015 134.354C97.1217 134.918 100.256 134.071 102.721 131.861C105.187 129.65 106.936 126.119 107.868 121.47L115.836 131.83C115.684 132.602 115.513 133.354 115.321 134.081C115.309 134.129 115.293 134.176 115.282 134.224C115.213 134.481 115.144 134.737 115.07 134.989C113.815 139.263 111.905 142.591 109.405 144.83C106.322 147.593 102.408 148.654 97.8804 147.947L97.8832 147.946Z" fill="black" stroke="#17CF8D" stroke-width="0.441059" stroke-miterlimit="10"/>
<path d="M90.1657 135.845L93.4971 134.349L97.88 147.944L94.5486 149.439L90.1657 135.845Z" fill="black" stroke="#17CF8D" stroke-width="0.441059" stroke-miterlimit="10"/>
<path d="M32.3934 74.9405C34.2039 81.9469 36.7597 89.1757 39.921 96.2191L34.3936 98.6999C30.442 89.8958 27.2453 80.8589 24.9835 72.1021C22.7217 63.3453 21.4388 55.0411 21.2115 47.6657L29.3741 55.3922C29.5576 61.2917 30.5814 67.9383 32.3906 74.9418L32.3934 74.9405Z" fill="black" stroke="#17CF8D" stroke-width="0.441059" stroke-miterlimit="10"/>
<path d="M24.9867 72.1002C27.2486 80.857 30.4453 89.8939 34.3969 98.698L31.0655 100.193C27.1138 91.3891 23.9171 82.3523 21.6553 73.5955C19.3935 64.8387 18.1106 56.5345 17.8833 49.1591L21.2147 47.6638C21.442 55.0392 22.7249 63.3434 24.9867 72.1002Z" fill="black" stroke="#17CF8D" stroke-width="0.441059" stroke-miterlimit="10"/>
<path d="M46.3582 68.672C48.1688 75.6783 50.7245 82.9072 53.8858 89.9505L48.3585 92.4313C44.4069 83.6272 41.2102 74.5904 38.9484 65.8335C36.6865 57.0767 35.4036 48.7725 35.1763 41.3972L43.3389 49.1237C43.5225 55.0232 44.5462 61.6697 46.3555 68.6732L46.3582 68.672Z" fill="black" stroke="#17CF8D" stroke-width="0.441059" stroke-miterlimit="10"/>
<path d="M38.9457 65.8346C41.2075 74.5914 44.4042 83.6283 48.3559 92.4324L39.4109 96.4472C35.4592 87.6431 32.2625 78.6062 30.0007 69.8494C27.7389 61.0926 26.456 52.7884 26.2287 45.4131L35.1737 41.3982C35.401 48.7736 36.6839 57.0778 38.9457 65.8346Z" fill="black" stroke="#17CF8D" stroke-width="0.441059" stroke-miterlimit="10"/>
<path d="M57.0936 109.359L39.7992 117.121L43.5789 111.253L60.8733 103.491L57.0936 109.359Z" fill="black" stroke="#17CF8D" stroke-width="0.441059" stroke-miterlimit="10"/>
<path d="M55.0945 138.443C60.4396 144.437 65.822 149.061 70.94 152.052L88.2344 144.29L57.0893 109.363L39.7948 117.125C44.5494 125.207 49.7494 132.45 55.0917 138.445" fill="black"/>
<path d="M55.0945 138.443C60.4396 144.437 65.822 149.061 70.94 152.052L88.2344 144.29L57.0893 109.363L39.7948 117.125C44.5494 125.207 49.7494 132.45 55.0917 138.445" stroke="#17CF8D" stroke-width="0.441059" stroke-miterlimit="10"/>
<path d="M85.7877 131.438L88.2355 144.29C83.1175 141.298 77.7324 136.675 72.3901 130.68C67.045 124.687 61.8477 117.443 57.0932 109.361L60.8741 103.496C64.6791 109.962 68.8388 115.758 73.1133 120.551C77.3878 125.343 81.6967 129.043 85.7905 131.437L85.7877 131.438Z" fill="black" stroke="#17CF8D" stroke-width="0.441059" stroke-miterlimit="10"/>
</g>
<defs>
<clipPath id="clip0_3112_3769">
<rect width="147.314" height="79.8316" fill="white" transform="matrix(-0.409481 -0.912318 -0.912318 0.409481 133.91 134.735)"/>
</clipPath>
</defs>
</svg>
