<svg width="72" height="72" viewBox="0 0 72 72" fill="none" xmlns="http://www.w3.org/2000/svg">
<rect width="72" height="72" rx="24" fill="url(#paint0_linear_5109_17)"/>
<path d="M52.8132 36.6001C52.5098 36.1758 45.2747 26.2227 36.0668 26.2227C26.8581 26.2227 19.4902 36.1758 19.1868 36.6001C18.9377 36.9467 18.9377 37.4136 19.1868 37.7595C19.4902 38.1839 26.8581 48.1369 36.0668 48.1369C45.2747 48.1369 52.5098 38.1839 52.8132 37.7595C53.0623 37.4136 53.0623 36.9467 52.8132 36.6001ZM36.0668 44.1525C32.2224 44.1525 28.9612 41.0241 28.9612 37.1798C28.9612 33.3354 32.2224 30.207 36.0668 30.207C39.9111 30.207 43.0395 33.3354 43.0395 37.1798C43.0395 41.0241 39.9111 44.1525 36.0668 44.1525Z" fill="#535353"/>
<path d="M36.0684 34.1914C34.4202 34.1914 32.9473 35.5321 32.9473 37.1797C32.9473 38.8279 34.4202 40.168 36.0684 40.168C37.7159 40.168 39.0566 38.8279 39.0566 37.1797C39.0566 35.5321 37.7159 34.1914 36.0684 34.1914Z" fill="#535353"/>
<defs>
<linearGradient id="paint0_linear_5109_17" x1="36" y1="0" x2="36" y2="72" gradientUnits="userSpaceOnUse">
<stop stop-color="#303030"/>
<stop offset="1" stop-color="#222222" stop-opacity="0.72"/>
</linearGradient>
</defs>
</svg>
